# xmcd
#
# Track frame offsets:
#	150
#	14306
#	29518
#	44598
#	60413
#	76822
#	93019
#	106432
#	124247
#	139996
#	160180
#
# Disc length: 2286 seconds
#
# Revision: 1
# Processed by: cddbd v1.5.2PL0 Copyright (c) Steve Scherf et al.
# Submitted via: audiograbber 1.83.01
#
DISCID=8908ec0b
DTITLE=The Road Hammers - The Road Hammers II
DYEAR=2009
DGENRE=Country
TTITLE0=Homegrown
TTITLE1=Gettin' Screwed
TTITLE2=I Don't Know When To Quit
TTITLE3=Cowboy 'til I Die
TTITLE4=Workin' Hard At Lovin' You
TTITLE5=I've Got The Scars To Prove It
TTITLE6=Thank God I'm A Country Boy
TTITLE7=Freewheelin'
TTITLE8=No Time For Long Goodbyes
TTITLE9=Goodbye Dust
TTITLE10=A Girl Who Loves To Truck
EXTD=
EXTT0=
EXTT1=
EXTT2=
EXTT3=
EXTT4=
EXTT5=
EXTT6=
EXTT7=
EXTT8=
EXTT9=
EXTT10=
PLAYORDER=
